<svg xmlns="http://www.w3.org/2000/svg" width="44" height="64" viewBox="0 0 44 64"><defs><style>.cls-1{fill:#ed1b35;fill-rule:evenodd}</style></defs><path id="Hourglass" class="cls-1" d="M42.012 3.99H37.98v13.469c0 6.526-3.542 11.465-11.135 15.33 7.882 3.989 11.2 8.887 11.2 16.2 0 4.761-.022 8.754-.037 10.949h4.006a2 2 0 0 1 0 4H1.863a2 2 0 0 1 0-4h4.123a1636.01 1636.01 0 0 1-.037-10.949c0-7.309 3.269-12.208 11.138-16.2-7.58-3.866-11.076-8.8-11.076-15.33V3.99H1.863a2 2 0 1 1 0-4h40.149a2 2 0 1 1 0 4zm-32.063 45c0 4.77.022 8.767.037 10.949h24.02c.015-2.182.037-6.18.037-10.949 0-5.563-2.07-9.88-12.078-14.03-10.004 4.146-12.016 8.462-12.016 14.026zm24.031-45H10.012v13.469c0 3.838 1.291 8.78 11.953 13.163C32.629 26.238 33.98 21.3 33.98 17.459V3.99z"/></svg>