<svg xmlns="http://www.w3.org/2000/svg" width="64" height="64" viewBox="0 0 64 64"><defs><style>.cls-1{fill:#ed1b35;fill-rule:evenodd}</style></defs><path id="Like" class="cls-1" d="M38.015 63.969c-18.177 0-18.317-.754-20.568-2.449C16.252 60.621 14 60 5.77 59.463a2.137 2.137 0 0 1-1.546-.73C4.05 58.52-.063 52.524-.063 42.918c0-9.465 2.943-13.78 3.069-13.981A2 2 0 0 1 4.7 28c6.757 0 16.123-8.625 22.421-23.682C28.212 1.712 28.437 0 32.437 0a7.76 7.76 0 0 1 6.085 3.719c2.582 4.268 1.271 13.44.057 18.341 4.125-.033 11.592-.09 15.145-.09 4.943 0 8.213 2.947 8.312 7.256a11.734 11.734 0 0 1-.566 4.174 7.412 7.412 0 0 1 2.553 4.829c.076 2.719-1.705 4.791-2.842 5.979a8.254 8.254 0 0 1 .732 3.094c-.125 3.084-2.506 5.072-3.99 6.109a11.57 11.57 0 0 1-.051 3.666c-1.072 4.917-8.272 6.892-19.857 6.892zM6.832 55.406C14 56 17.831 56.8 19.853 58.324c1.565 1.177 1.323 1.644 18.162 1.644 5.137 0 15.182-.215 15.951-3.74.307-1.41-1.18-2.8-1.185-2.806a2.029 2.029 0 0 1 1.037-2.612c.016-.008 4.008-1.439 4.1-3.67a3.137 3.137 0 0 0-.943-2.32 2.039 2.039 0 0 1 .514-2.76c.01-.008 2.6-1.576 2.535-3.715-.049-1.7-2.287-2.892-2.355-2.932a2.015 2.015 0 0 1-.611-2.964 6.705 6.705 0 0 0 .981-3.132c-.074-3.246-3.564-3.347-4.312-3.347-5.045 0-18 .052-18 .052a1.979 1.979 0 0 1-1.679-.886 2.111 2.111 0 0 1-.183-1.889c1.953-5.628 3.045-14.455 1.233-17.471C34.56 4.888 34.437 4 32.437 4c-.277 0-.937.219-1.625 1.86C24.126 21.849 14.145 31.1 5.969 31.932a25.82 25.82 0 0 0-2.032 10.986 26.607 26.607 0 0 0 2.895 12.488z"/></svg>