<svg xmlns="http://www.w3.org/2000/svg" width="64" height="62" viewBox="0 0 64 62"><defs><style>.cls-1{fill:#ed1b35;fill-rule:evenodd}</style></defs><path id="Basket_loaded" data-name="Basket loaded" class="cls-1" d="M63.723 18.556l-9.516 28.105a1.986 1.986 0 0 1-1.869 1.315h-27a1.985 1.985 0 0 1-1.912-1.449L12.375 5.906c-.564-1.949-1.391-1.949-1.662-1.949H2.146a1.986 1.986 0 1 1 0-3.973h8.566c1.228 0 4.223.471 5.482 4.834L19.408 15.9h5.131l12.6-10.927a4 4 0 0 1 5.657 0L55.619 15.9h6.234a1.986 1.986 0 0 1 1.87 2.656zM39.971 7.8l-9.5 8.1h19.001zM20.523 19.871L26.846 44h24.093l8.09-24.132H20.523zM29 52a5 5 0 1 1-5 5 5 5 0 0 1 5-5zm18 0a5 5 0 1 1-5 5 5 5 0 0 1 5-5z"/></svg>