<svg xmlns="http://www.w3.org/2000/svg" width="64" height="64" viewBox="0 0 64 64"><defs><style>.cls-1{fill:#ed1b35;fill-rule:evenodd}</style></defs><path id="Call_out" data-name="Call out" class="cls-1" d="M12.6 3.977a.946.946 0 0 1 .164.013c1.125 1.635 7.164 10.778 8.26 12.487a2.906 2.906 0 0 1-.4 1.289c-.365.7-1.5 2.721-3.119 5.555l-1.258 2.2L17.7 27.6a80.214 80.214 0 0 0 8.789 10.018 79.978 79.978 0 0 0 10.021 8.8l2.078 1.459 2.2-1.26c2.137-1.22 4.719-2.683 5.559-3.125a2.834 2.834 0 0 1 1.26-.383.333.333 0 0 1 .051 0c1.531.961 10.871 7.162 12.52 8.293a1.358 1.358 0 0 1-.3.943c-2.537 3.514-6.139 7.184-7.549 7.709-7.5-.352-18.029-6.945-29.68-18.6S4.413 19.292 4.065 11.815c.506-1.415 4.176-5.039 7.659-7.557a1.582 1.582 0 0 1 .876-.281m0-4a5.564 5.564 0 0 0-3.156 1c-.098.065-9.51 6.889-9.385 10.77C.407 22.649 11 35.462 19.827 44.29s21.639 19.426 32.584 19.775h.089c3.832 0 10.568-9.293 10.633-9.385 1.768-2.526 1.123-5.3-.486-6.434-.978-.688-11.691-7.811-13-8.614a3.869 3.869 0 0 0-2.029-.521 6.827 6.827 0 0 0-3.121.842c-1.031.543-4.154 2.32-5.682 3.193a75.978 75.978 0 0 1-9.49-8.354 76.281 76.281 0 0 1-8.346-9.49c.871-1.527 2.646-4.65 3.186-5.678 1.023-1.937 1.139-3.873.308-5.178-.779-1.231-7.873-11.988-8.605-13A3.966 3.966 0 0 0 12.6-.023z"/></svg>