<svg xmlns="http://www.w3.org/2000/svg" width="64" height="64" viewBox="0 0 64 64"><defs><style>.cls-1{fill:#ed1b35;fill-rule:evenodd}</style></defs><path id="Compass" class="cls-1" d="M18.142 47.568a1.882 1.882 0 0 1-1.678-2.739l8.966-18.076a1.882 1.882 0 0 1 .822-.823l19.573-8.415a1.883 1.883 0 0 1 2.5 2.592L38.9 38.663a1.865 1.865 0 0 1-.826.782L18.962 47.38a1.873 1.873 0 0 1-.82.188zm10.366-18.559L22.366 41.55l13.526-5.236 6.151-12.645zM32 4A28.031 28.031 0 1 1 4 32 28.031 28.031 0 0 1 32 4m0-4a32 32 0 1 0 32 32A32 32 0 0 0 32 0zm-1.865 26.954l7.4 9.257a2.028 2.028 0 0 1-3.125 2.5l-7.4-9.257a2.028 2.028 0 0 1 3.125-2.5z"/></svg>