<svg xmlns="http://www.w3.org/2000/svg" width="64" height="64" viewBox="0 0 64 64"><defs><style>.cls-1{fill:#ed1b35;fill-rule:evenodd}</style></defs><path id="Note" class="cls-1" d="M32.1 10H4v50h46V34.527l4-3.819V60a4 4 0 0 1-4 4H4a4 4 0 0 1-4-4V10a4 4 0 0 1 4-4h32.04l.1.1zm22.908-6.036a4.559 4.559 0 0 1 3.154 1.5A5.173 5.173 0 0 1 60.08 8.9a5.445 5.445 0 0 1-1.887 3.653c-1.113 1.148-9.828 9.76-25.9 25.6l-1.23 1.213c-1.843.57-6.256 1.988-9.592 3.065 1.074-3.547 2.363-7.832 2.937-9.858C27.841 29.136 50.555 6.456 51.418 5.6a5.69 5.69 0 0 1 3.59-1.641m0-4a9.589 9.589 0 0 0-6.408 2.81c-.935.924-27.448 27.4-27.448 27.4a1.717 1.717 0 0 0-.437.759c-.718 2.654-4.317 14.436-4.353 14.554a1.7 1.7 0 0 0 .425 1.7 1.664 1.664 0 0 0 1.182.49 1.736 1.736 0 0 0 .515-.078c.122-.041 12.281-3.973 14.282-4.571a1.691 1.691 0 0 0 .7-.413c1.263-1.247 25.632-25.238 27.6-27.275 2.039-2.1 3.053-4.291 3.014-6.506a8.933 8.933 0 0 0-3.15-6.257 8.452 8.452 0 0 0-5.922-2.608z"/></svg>