<svg xmlns="http://www.w3.org/2000/svg" width="52" height="64" viewBox="0 0 52 64"><defs><style>.cls-1{fill:#ed1b35;fill-rule:evenodd}</style></defs><path id="Bag" class="cls-1" d="M48 63.916H4a4 4 0 0 1-4-4v-46a4 4 0 0 1 4-4h12.074V6.083a6.007 6.007 0 0 1 6-6h7.976a6.007 6.007 0 0 1 6 6v3.835H48a4 4 0 0 1 4 4v46a4 4 0 0 1-4 3.998zM32.051 6.083a2 2 0 0 0-2-2h-7.977a2 2 0 0 0-2 2v3.835h11.977V6.083zM48 13.918H36.051v4.115a1.973 1.973 0 0 1-2.008 2.008 1.859 1.859 0 0 1-1.992-2.008v-4.115H20.074v4.115a1.789 1.789 0 0 1-2.012 2 1.911 1.911 0 0 1-1.988-2v-4.115H4v46h44v-46z"/></svg>