<svg xmlns="http://www.w3.org/2000/svg" width="64" height="58" viewBox="0 0 64 58"><defs><style>.cls-1{fill:#ed1b35;fill-rule:evenodd}</style></defs><path id="Wallet" class="cls-1" d="M63.988 15.123c.029-1.478-.369-4.927-4.865-6.128L14.388 0l-.416-.045a6.007 6.007 0 0 0-6 6V14h-2a6.006 6.006 0 0 0-5.977 6v31.981a6.007 6.007 0 0 0 6 6h52.03a6.007 6.007 0 0 0 6-6M13.8 3.963l44.125 8.93a1.785 1.785 0 0 1-1.93 1.1H11.972V5.955A2 2 0 0 1 13.8 3.963zm46.225 48.018a2 2 0 0 1-2 2H6a2 2 0 0 1-2-2V19.993a2 2 0 0 1 2-2h50c1.963 0 4.025-.669 4.025-1.993v35.981zM12 32a4 4 0 1 1-4 4 4 4 0 0 1 4-4z"/></svg>